<svg xmlns="http://www.w3.org/2000/svg" width="8.981" height="15.244" viewBox="0 0 8.981 15.244"><defs><style>.a{fill:#f08080;stroke:#f08080;}</style></defs><g transform="translate(93.781 0.5) rotate(90)"><g transform="translate(0 85.333)"><path class="a" d="M14.157,89.131,9.706,85.406a.339.339,0,0,0-.42,0,.221.221,0,0,0,0,.351l3.945,3.3H.3a.252.252,0,1,0,0,.5H13.231l-3.945,3.3a.221.221,0,0,0,0,.351.339.339,0,0,0,.42,0l4.451-3.726A.221.221,0,0,0,14.157,89.131Z" transform="translate(0 -85.333)"/></g></g></svg>