<svg xmlns="http://www.w3.org/2000/svg" width="40.099" height="39.941" viewBox="0 0 40.099 39.941"><defs><style>.a{fill:#939393;}</style></defs><g transform="translate(0 -0.587)"><path class="a" d="M262.611,23.407a.809.809,0,1,0-.935-1.321l-2.022,1.43a.809.809,0,1,0,.935,1.321Z" transform="translate(-224.328 -18.469)"/><path class="a" d="M240.7,4.473A.808.808,0,0,0,241.741,4l.872-2.318a.809.809,0,0,0-1.515-.57l-.872,2.318A.81.81,0,0,0,240.7,4.473Z" transform="translate(-207.771)"/><path class="a" d="M270.155,55.611h-.017l-2.476.021a.786.786,0,0,0-.793.8.815.815,0,0,0,.809.8h.017l2.476-.042a.8.8,0,0,0,.793-.816A.783.783,0,0,0,270.155,55.611Z" transform="translate(-230.866 -47.6)"/><path class="a" d="M34.295,21.262a3.373,3.373,0,0,0-1.424-.657c.034-.062.066-.125.1-.189l.325-.325A3.453,3.453,0,0,0,33.6,15.51a3.4,3.4,0,0,0-2-1.229c.056-.1.106-.208.151-.315a3.412,3.412,0,0,0-2.1-5.316,3.418,3.418,0,0,0-5.254-4.214,3.361,3.361,0,0,0-.676-1.507,3.41,3.41,0,0,0-2.688-1.3h0a3.4,3.4,0,0,0-2.421,1L10.4,10.838l-.031-1.1a3.406,3.406,0,0,0-6.81-.1L1.918,21.555.571,23.12a2.386,2.386,0,0,0,.123,3.233l2,2a2.387,2.387,0,0,0,.3,3l9.4,9.384a2.362,2.362,0,0,0,1.679.695,2.39,2.39,0,0,0,1.447-.492l1.962-1.507a18.6,18.6,0,0,0,6.189-3.013,48.05,48.05,0,0,0,6.251-5.374l4.672-4.672a3.429,3.429,0,0,0-.3-5.109ZM25.38,5.728a1.81,1.81,0,0,1,2.7.16,1.842,1.842,0,0,1-.181,2.432l-.833.833a3.4,3.4,0,0,0-.371.281,3.36,3.36,0,0,0-.676-1.507,3.41,3.41,0,0,0-1.683-1.15ZM19.75,3.775a1.81,1.81,0,0,1,2.7.16,1.842,1.842,0,0,1-.181,2.432L12.7,15.835l-.031-1.1A3.4,3.4,0,0,0,11.4,12.122ZM1.838,25.207A.758.758,0,0,1,1.8,24.176L3.455,22.25l0,0L5.173,9.769a1.787,1.787,0,0,1,3.575,0l.047,1.624a3.411,3.411,0,0,0-2.938,3.246L4.217,26.552l-.477.554Zm31.612.02L28.777,29.9c-3.99,3.99-8.161,7.193-11.826,7.992a.772.772,0,0,0-.306.141l-2.112,1.622a.758.758,0,0,1-1-.065L4.137,30.2A.758.758,0,0,1,4.1,29.173l1.657-1.926,0,0L7.472,14.767a1.787,1.787,0,1,1,3.575,0l.084,2.944a.829.829,0,0,0,.835.808.814.814,0,0,0,.581-.245l9.5-9.5a1.81,1.81,0,0,1,2.7.16,1.842,1.842,0,0,1-.181,2.432L18.019,17.91a.87.87,0,0,0,0,1.231h0a.881.881,0,0,0,1.246,0l8.415-8.415a1.81,1.81,0,0,1,2.7.16,1.842,1.842,0,0,1-.181,2.432l-8.376,8.376a.882.882,0,0,0,0,1.247.869.869,0,0,0,1.229,0l6.585-6.585a1.81,1.81,0,0,1,2.7.16,1.842,1.842,0,0,1-.181,2.432L25.624,25.47a.9.9,0,0,0,0,1.276l.011.011a.834.834,0,0,0,1.179,0l4.044-4.044a1.9,1.9,0,0,1,1.338-.557,1.752,1.752,0,0,1,1.094.376A1.81,1.81,0,0,1,33.449,25.227Z" transform="translate(0 -0.901)"/></g></svg>