<svg xmlns="http://www.w3.org/2000/svg" width="27.492" height="29.325" viewBox="0 0 27.492 29.325"><defs><style>.a{fill:#939393;}</style></defs><g transform="translate(-16)"><g transform="translate(16)"><path class="a" d="M38.337,19.015a5.151,5.151,0,0,0-4.145,2.095L26.1,16.975a5.155,5.155,0,0,0-.168-3.387l8.48-5.1a5.134,5.134,0,1,0-.882-1.475l-8.5,5.108a5.154,5.154,0,1,0,.316,6.393l8.068,4.123a5.155,5.155,0,1,0,4.924-3.627Zm0-17.3A3.437,3.437,0,1,1,34.9,5.155,3.44,3.44,0,0,1,38.337,1.718ZM21.155,18.958a3.437,3.437,0,1,1,3.437-3.437A3.44,3.44,0,0,1,21.155,18.958Zm17.183,8.649a3.437,3.437,0,1,1,3.437-3.437A3.44,3.44,0,0,1,38.337,27.607Z" transform="translate(-16)"/></g></g></svg>