<svg xmlns="http://www.w3.org/2000/svg" width="27.148" height="15.636" viewBox="0 0 27.148 15.636"><defs><style>.a{fill:#fff;stroke:#fff;}</style></defs><g transform="translate(26.648 100.423) rotate(180)"><g transform="translate(0 85.333)"><path class="a" d="M25.989,92.306l-8.171-6.839a.622.622,0,0,0-.77,0,.405.405,0,0,0,0,.645l7.241,6.061H.545a.463.463,0,1,0,0,.912H24.288l-7.241,6.061a.405.405,0,0,0,0,.645.622.622,0,0,0,.77,0l8.171-6.839A.405.405,0,0,0,25.989,92.306Z" transform="translate(0 -85.333)"/></g></g></svg>