<svg xmlns="http://www.w3.org/2000/svg" width="11.826" height="20.333" viewBox="0 0 11.826 20.333"><defs><style>.a{fill:#f08080;stroke:#f08080;}</style></defs><g transform="translate(96.621 0.5) rotate(90)"><g transform="translate(0 85.333)"><path class="a" d="M19.215,90.488l-6.042-5.057a.46.46,0,0,0-.57,0,.3.3,0,0,0,0,.477l5.354,4.481H.4a.342.342,0,1,0,0,.674H17.958L12.6,95.545a.3.3,0,0,0,0,.477.46.46,0,0,0,.57,0l6.042-5.057A.3.3,0,0,0,19.215,90.488Z" transform="translate(0 -85.333)"/></g></g></svg>